PathFileType	4	(X/Y/Z)	E:\Qualisys_Data\Carbon_Farble_Plate\Data\Amateur_Runner\S1\T3\S1T3V12_c3d.trc
DataRate	CameraRate	NumFrames	NumMarkers	Units	OrigDataRate	OrigDataStartFrame	OrigNumFrames
200.000000	200.000000	4	39	mm	200.000000	241	322
Frame#	Time	LSHO			RSHO			LICST			RICST			LASIS			LHEEL			RASIS			LTROC			RTROC			SACR			LTH1			LSK4			LTH2			LTH3			RHM5			LSK2			LTH4			RTH1			LTOE			RTH2			RTH3			RTH4			LLEP			RLEP			LSK1			LSK3			RSK1			LHM5			RSK2			LFT1			RSK3			RSK4			LLME			RLME			RTOE			RHEEL			RFT1			RFT2			LFT2			
		X1	Y1	Z1	X2	Y2	Z2	X3	Y3	Z3	X4	Y4	Z4	X5	Y5	Z5	X6	Y6	Z6	X7	Y7	Z7	X8	Y8	Z8	X9	Y9	Z9	X10	Y10	Z10	X11	Y11	Z11	X12	Y12	Z12	X13	Y13	Z13	X14	Y14	Z14	X15	Y15	Z15	X16	Y16	Z16	X17	Y17	Z17	X18	Y18	Z18	X19	Y19	Z19	X20	Y20	Z20	X21	Y21	Z21	X22	Y22	Z22	X23	Y23	Z23	X24	Y24	Z24	X25	Y25	Z25	X26	Y26	Z26	X27	Y27	Z27	X28	Y28	Z28	X29	Y29	Z29	X30	Y30	Z30	X31	Y31	Z31	X32	Y32	Z32	X33	Y33	Z33	X34	Y34	Z34	X35	Y35	Z35	X36	Y36	Z36	X37	Y37	Z37	X38	Y38	Z38	X39	Y39	Z39	

242	1.205	1333.079223632812	1472.284057617188	-512.6961059570312	1379.567138671875	1493.214965820312	-191.4722900390625	1330.066162109375	1025.098510742188	-457.9029235839844	1340.724731445312	1036.077758789062	-159.0189971923828	1381.633056640625	990.7732543945312	-433.6039733886719	1401.138916015625	71.55181121826172	-338.535888671875	1377.7705078125	987.3471069335938	-169.9200744628906	1280.350463867188	897.88623046875	-476.5590209960938	1263.760375976562	903.706298828125	-132.9179992675781	1217.537963867188	1042.5654296875	-301.2695007324219	1446.389404296875	777.1984252929688	-451.8443908691406	1396.288818359375	218.870849609375	-372.3677062988281	1370.600219726562	746.9986572265625	-476.1670532226562	1475.704345703125	678.7816772460938	-432.7154541015625	875.2152709960938	193.2241058349609	-163.9671936035156	1399.43359375	313.7095336914062	-416.0973510742188	1395.4267578125	652.815185546875	-448.7188415527344	1374.419555664062	759.5586547851562	-161.4723663330078	1649.916015625	87.31208038330078	-349.0384521484375	1300.310546875	765.575439453125	-134.2143859863281	1363.982177734375	659.3413696289062	-166.7635955810547	1286.22509765625	667.1968383789062	-146.7297058105469	1464.835693359375	521.3654174804688	-410.8322143554688	1279.720458984375	497.7184143066406	-175.3623657226562	1483.135986328125	308.8927307128906	-406.7060852050781	1473.361938476562	208.7398376464844	-396.9895629882812	1113.181518554688	411.3776245117188	-159.2074890136719	1581.016235351562	55.61513519287109	-403.9398498535156	1080.85302734375	484.4957885742188	-178.3139801025391	1412.250610351562	47.74837493896484	-305.5448608398438	1023.4931640625	367.8452453613281	-170.7031860351562	992.5774536132812	438.3882751464844	-198.3959197998047	1448.39794921875	92.17908477783205	-388.0492858886719	892.9569702148438	343.0113220214844	-173.8912963867188	908.79150390625	148.3009033203125	-233.9454498291016	836.361572265625	387.5948486328125	-217.9682769775391	814.9097290039062	371.7327270507812	-251.0072174072266	811.4848022460938	377.5205078125	-197.9473114013672	1407.575439453125	37.02521133422852	-356.103515625
243	1.21	1350.042114257812	1466.422729492188	-513.7957763671875	1394.25537109375	1488.279663085938	-192.0026702880859	1344.71044921875	1020.155639648438	-458.2777709960938	1355.505859375	1031.066772460938	-158.79052734375	1395.468627929688	985.8689575195312	-433.9284362792969	1403.719604492188	72.0906982421875	-339.6356506347656	1392.795288085938	982.3138427734376	-169.7616882324219	1295.28173828125	892.9896240234375	-476.8694152832031	1279.5244140625	897.8438110351562	-133.7052917480469	1231.744506835938	1037.897827148438	-301.3486022949219	1461.238525390625	772.2368774414062	-452.0444030761719	1404.868774414062	217.3953857421875	-372.2635192871094	1385.61328125	742.2289428710938	-476.9443359375	1490.464721679688	673.70654296875	-433.911865234375	895.8326416015625	195.0558471679688	-162.6753692626953	1410.962158203125	312.4618530273438	-415.9076843261719	1409.82861328125	647.8914794921875	-449.53271484375	1392.060302734375	755.4484252929688	-160.0501251220703	1652.790405273438	82.2369613647461	-342.9295959472656	1317.467407226562	760.18017578125	-134.469482421875	1383.922241210938	654.9459228515625	-164.803955078125	1305.233154296875	661.76513671875	-146.3995056152344	1480.909790039062	517.1624755859375	-411.0765075683594	1302.85400390625	492.623291015625	-174.2706756591797	1495.383178710938	304.8878479003906	-406.1533508300781	1480.658935546875	205.4075927734375	-396.6141052246094	1135.421875	408.5526733398438	-157.5840911865234	1585.322143554688	59.03051376342773	-404.5442199707031	1104.981689453125	482.1594543457031	-177.8713531494141	1413.87548828125	47.24011993408203	-306.0090637207031	1045.388916015625	366.6665649414062	-170.7874908447266	1016.083923339844	437.6385498046875	-198.2988433837891	1453.70703125	90.05511474609375	-387.5986022949219	914.5455932617188	344.1102294921875	-173.8993225097656	929.5972900390624	149.3400115966797	-231.7527160644531	858.4889526367188	389.2512512207031	-218.9717407226562	837.447998046875	373.3216247558594	-251.7671661376953	833.4215087890625	379.5953369140625	-198.6799621582031	1409.322021484375	37.12111282348633	-356.6802978515625
244	1.215	1366.853759765625	1460.512084960938	-515.0787353515625	1408.823974609375	1483.641357421875	-192.1395874023438	1359.413208007812	1015.655090332031	-458.8414611816406	1370.262573242188	1025.846923828125	-158.4223022460938	1410.425415039062	981.4807739257812	-433.539306640625	1405.206420898438	72.73783874511719	-338.1927795410156	1407.700927734375	977.66162109375	-169.6626281738281	1310.149291992188	887.8778686523438	-477.50146484375	1294.883056640625	892.09765625	-134.5530548095703	1246.138427734375	1032.904296875	-302.3063354492188	1475.962280273438	766.9794921875	-452.4459228515625	1413.80078125	218.0023651123047	-373.1556701660156	1400.02880859375	737.8570556640625	-478.4679870605469	1504.410522460938	668.2700805664062	-435.2524719238281	916.7349243164062	196.659423828125	-161.1974639892578	1423.07177734375	312.5114440917969	-416.0067138671875	1423.80859375	643.3193359375	-451.0331726074219	1410.14892578125	751.5189208984375	-158.9811401367188	1652.967041015625	83.97770690917969	-340.4954528808594	1335.197631835938	755.2399291992188	-133.7860107421875	1403.391967773438	650.3987426757812	-162.6725311279297	1324.497192382812	655.9283447265625	-145.633544921875	1497.943603515625	513.7453002929688	-410.6466674804688	1325.780883789062	486.9463806152344	-173.2768859863281	1507.016845703125	302.2893676757812	-406.5544738769531	1489.759033203125	203.2908630371094	-395.6856079101562	1158.804809570312	405.9920349121094	-156.8401947021484	1585.106323242188	58.20970916748047	-402.6442565917969	1129.068359375	479.7816162109375	-177.590087890625	1414.664428710938	47.33528518676758	-305.1131896972656	1068.053100585938	365.1443176269531	-170.1492462158203	1039.9111328125	436.4278869628906	-198.1873321533203	1457.217651367188	89.57653045654297	-386.0975036621094	936.6246948242188	345.1354064941406	-173.8050384521484	951.2142944335938	149.8611755371094	-229.5036773681641	880.97412109375	390.2451477050781	-219.9296569824219	860.2164306640625	374.2481994628906	-252.6725769042969	855.9072265625	380.9471435546875	-199.6506500244141	1409.922729492188	37.92391586303711	-355.8929443359375
245	1.22	1383.7734375	1455.089965820312	-516.3676147460938	1423.402099609375	1478.87841796875	-191.8293304443359	1373.445068359375	1010.816284179688	-459.1656188964844	1384.834106445312	1020.809265136719	-158.3705749511719	1425.577758789062	977.6983642578124	-433.5466918945312	1405.978149414062	74.1887435913086	-336.3479919433594	1422.309814453125	972.5964965820312	-169.8050231933594	1324.674560546875	883.6853637695312	-479.825927734375	1310.586303710938	886.3126831054688	-135.5392913818359	1259.789794921875	1028.79345703125	-302.4260559082031	1490.313354492188	762.9434204101562	-453.5463256835938	1422.357177734375	220.0666961669922	-374.4934692382812	1414.283569335938	734.6239013671875	-480.2136840820312	1518.403076171875	664.2791137695312	-437.1558837890625	939.1691284179688	198.3147277832031	-159.5719451904297	1435.946655273438	314.4873352050781	-417.22705078125	1437.94287109375	638.3292846679688	-453.8741149902344	1428.019165039062	747.36962890625	-158.1730651855469	1653.856201171875	81.81768035888672	-342.2271118164062	1352.680541992188	749.6372680664062	-133.7061004638672	1423.40478515625	646.2588500976562	-161.41650390625	1344.554931640625	650.56982421875	-144.6892395019531	1515.994506835938	512.2006225585938	-410.1526184082031	1349.412475585938	482.2601623535156	-172.4436950683594	1519.030517578125	300.9629821777344	-405.1547546386719	1498.042602539062	202.6077880859375	-394.8697509765625	1182.5029296875	403.7190551757812	-155.7701416015625	1583.704223632812	56.92524719238281	-403.6210632324219	1153.794189453125	477.5162658691406	-177.5943756103516	1414.840209960938	47.77630233764648	-304.7293090820312	1090.862915039062	364.2081604003906	-169.2003173828125	1064.069946289062	435.6601257324219	-197.8662567138672	1457.79638671875	90.5680923461914	-383.9515686035156	959.3501586914062	346.1802368164062	-173.8618011474609	973.8279418945312	150.3759307861328	-227.0988159179688	904.2450561523438	391.2670288085938	-220.7181091308594	883.345458984375	374.6258850097656	-253.6190643310547	878.7324829101562	382.1923217773438	-200.9178161621094	1410.003784179688	39.83750915527344	-354.7388305664062
